<svg xmlns="http://www.w3.org/2000/svg" viewBox="0 0 300.41 36.33"><defs><style>.cls-1{fill:#ffa000;}</style></defs><title>Asset 1</title><g id="Layer_2" data-name="Layer 2"><g id="Home_Page" data-name="Home Page"><g id="Nav_Landing_Section" data-name="Nav+Landing Section"><path class="cls-1" d="M29.51,7.27H17.77V35.59h-6V7.27H0V1.74H29.51Z"/><path class="cls-1" d="M50.82,12V35.59H45.09v-2a10.9,10.9,0,0,1-7.32,2.74,9.66,9.66,0,0,1-7.47-3.09A11.55,11.55,0,0,1,27.47,25V12H33.2V24.69a6.76,6.76,0,0,0,1.54,4.73A5.44,5.44,0,0,0,39,31.11q3.38,0,6.12-3.48V12Z"/><path class="cls-1" d="M74,30.41l.8,4.93a21.28,21.28,0,0,1-5.87,1,8.63,8.63,0,0,1-6.67-2.64,10.14,10.14,0,0,1-2.44-7.17V16.87H54.45V12h5.38V3.43h5.72V12h8.71v4.83H65.55v9.66Q65.55,31,70,31A15.27,15.27,0,0,0,74,30.41Z"/><path class="cls-1" d="M102.48,23.84a12.16,12.16,0,0,1-3.58,9A13.06,13.06,0,0,1,81,32.8a12.15,12.15,0,0,1-3.58-9A11.87,11.87,0,0,1,81,15a12.35,12.35,0,0,1,9-3.53A12.08,12.08,0,0,1,98.89,15,11.87,11.87,0,0,1,102.48,23.84Zm-5.72,0a7.13,7.13,0,0,0-1.92-5.08,6.85,6.85,0,0,0-9.76,0,7.13,7.13,0,0,0-1.92,5.08A7.54,7.54,0,0,0,85.06,29,6.43,6.43,0,0,0,90,31.11,6.18,6.18,0,0,0,94.86,29,7.55,7.55,0,0,0,96.75,23.84Z"/><path class="cls-1" d="M113.38,12v3a11.51,11.51,0,0,1,8.56-3.43V17A11,11,0,0,0,113.38,21V35.59H107.6V12Z"/><path class="cls-1" d="M126.42,3.53a3.37,3.37,0,0,1,1-2.51,3.67,3.67,0,0,1,5.08,0,3.37,3.37,0,0,1,1,2.51,3.24,3.24,0,0,1-1,2.44,3.73,3.73,0,0,1-5.08,0A3.24,3.24,0,0,1,126.42,3.53ZM132.89,12V35.59h-5.72V12Z"/><path class="cls-1" d="M163.4,12V35.59h-5.72V33.94a12.14,12.14,0,0,1-7.22,2.19A11.3,11.3,0,0,1,142,32.55a12.12,12.12,0,0,1-3.43-8.71A12.12,12.12,0,0,1,142,15.13a11.23,11.23,0,0,1,8.41-3.63,12.15,12.15,0,0,1,7.22,2.19V12ZM151.3,31.16a7.23,7.23,0,0,0,6.37-3.33v-8a7.23,7.23,0,0,0-6.37-3.33,6.55,6.55,0,0,0-5,2.19,7.33,7.33,0,0,0-2,5.18,7.32,7.32,0,0,0,2,5.18A6.51,6.51,0,0,0,151.3,31.16Z"/><path class="cls-1" d="M175.94.25V35.59h-5.77V.25Z"/><path d="M184.1,1.74h11.8a13.72,13.72,0,0,1,9.36,3.09,10.09,10.09,0,0,1,3.58,8.11,10.61,10.61,0,0,1-3.68,8.36q-3.63,3.14-9.71,3.14h-7.81V35.59H184.1Zm3.53,19.46h8.11a10.14,10.14,0,0,0,7-2.29,7.63,7.63,0,0,0,2.64-6,7.14,7.14,0,0,0-2.64-5.77,10.56,10.56,0,0,0-7-2.19h-8.11Z"/><path d="M236.31,24.09a12.22,12.22,0,1,1-24.44,0,12.22,12.22,0,1,1,24.44,0Zm-3.43,0a8.69,8.69,0,0,0-2.54-6.32,8.71,8.71,0,0,0-12.49,0,8.69,8.69,0,0,0-2.54,6.32,9.15,9.15,0,0,0,2.54,6.52,8.35,8.35,0,0,0,6.27,2.64,8.2,8.2,0,0,0,6.22-2.64A9.15,9.15,0,0,0,232.88,24.09Z"/><path d="M247.86,3.88a2,2,0,0,1-1.14,2,2.54,2.54,0,0,1-2.39,0,2,2,0,0,1-1.14-2,2.4,2.4,0,0,1,.7-1.64,2.23,2.23,0,0,1,1.64-.65,2.18,2.18,0,0,1,1.64.67A2.45,2.45,0,0,1,247.86,3.88Zm-.6,8.71v23h-3.43v-23Z"/><path d="M268.21,11.85a9.31,9.31,0,0,1,7.07,2.89A10.61,10.61,0,0,1,278,22.35V35.59h-3.43V22.5A7.7,7.7,0,0,0,272.69,17a6.68,6.68,0,0,0-5.08-2,9.46,9.46,0,0,0-7.91,4.28V35.59h-3.38v-23h3.38v2.74A11.27,11.27,0,0,1,268.21,11.85Z"/><path d="M299.87,32.6l.55,2.94a17.62,17.62,0,0,1-5,.8q-8,0-8-9V15.53h-6.12V12.59h6.12V4.08h3.38v8.51h8.71v2.94h-8.71v11.8a6.63,6.63,0,0,0,1.24,4.48A5,5,0,0,0,296,33.2,14.43,14.43,0,0,0,299.87,32.6Z"/></g></g></g></svg>